REM DIRINDEX 1\2,1\3,1\4
REM DIRNAME cjc031,folder01,folder02,folder03
TITLE ""
FILE "CD1-14.mp3" MP3
  TRACK 01 AUDIO
    TITLE "2:cjc031_0776"
    INDEX 01 00:00:00
  TRACK 02 AUDIO
    TITLE "3:cjc031_0777"
    INDEX 01 00:01:19
  TRACK 03 AUDIO
    TITLE "2:cjc031_0778"
    INDEX 01 00:02:32
  TRACK 04 AUDIO
    TITLE "3:cjc031_0779"
    INDEX 01 00:03:55
  TRACK 05 AUDIO
    TITLE "2:cjc031_0780"
    INDEX 01 00:05:07
  TRACK 06 AUDIO
    TITLE "3:cjc031_0781"
    INDEX 01 00:06:35
  TRACK 07 AUDIO
    TITLE "2:cjc031_0782"
    INDEX 01 00:08:01
  TRACK 08 AUDIO
    TITLE "3:cjc031_0783"
    INDEX 01 00:09:32
  TRACK 09 AUDIO
    TITLE "2:cjc031_0784"
    INDEX 01 00:11:01
  TRACK 10 AUDIO
    TITLE "3:cjc031_0785"
    INDEX 01 00:12:26
  TRACK 11 AUDIO
    TITLE "2:cjc031_0786"
    INDEX 01 00:13:59
  TRACK 12 AUDIO
    TITLE "3:cjc031_0787"
    INDEX 01 00:15:15
  TRACK 13 AUDIO
    TITLE "2:cjc031_0788"
    INDEX 01 00:16:30
  TRACK 14 AUDIO
    TITLE "3:cjc031_0789"
    INDEX 01 00:17:47
  TRACK 15 AUDIO
    TITLE "2:cjc031_0790"
    INDEX 01 00:19:13
  TRACK 16 AUDIO
    TITLE "3:cjc031_0791"
    INDEX 01 00:20:37
  TRACK 17 AUDIO
    TITLE "2:cjc031_0792"
    INDEX 01 00:22:11
  TRACK 18 AUDIO
    TITLE "3:cjc031_0793"
    INDEX 01 00:23:40
  TRACK 19 AUDIO
    TITLE "2:cjc031_0794"
    INDEX 01 00:24:67
  TRACK 20 AUDIO
    TITLE "3:cjc031_0795"
    INDEX 01 00:26:15
  TRACK 21 AUDIO
    TITLE "2:cjc031_0796"
    INDEX 01 00:27:57
  TRACK 22 AUDIO
    TITLE "3:cjc031_0797"
    INDEX 01 00:28:59
  TRACK 23 AUDIO
    TITLE "2:cjc031_0798"
    INDEX 01 00:30:12
  TRACK 24 AUDIO
    TITLE "3:cjc031_0799"
    INDEX 01 00:31:45
  TRACK 25 AUDIO
    TITLE "2:cjc031_0800"
    INDEX 01 00:33:17
  TRACK 26 AUDIO
    TITLE "3:cjc031_0801"
    INDEX 01 00:34:43
  TRACK 27 AUDIO
    TITLE "2:cjc031_0802"
    INDEX 01 00:35:66
  TRACK 28 AUDIO
    TITLE "3:cjc031_0803"
    INDEX 01 00:37:16
  TRACK 29 AUDIO
    TITLE "2:cjc031_0804"
    INDEX 01 00:38:57
  TRACK 30 AUDIO
    TITLE "3:cjc031_0805"
    INDEX 01 00:40:01
  TRACK 31 AUDIO
    TITLE "2:cjc031_0806"
    INDEX 01 00:41:42
  TRACK 32 AUDIO
    TITLE "3:cjc031_0807"
    INDEX 01 00:42:57
  TRACK 33 AUDIO
    TITLE "2:cjc031_0808"
    INDEX 01 00:44:07
  TRACK 34 AUDIO
    TITLE "3:cjc031_0809"
    INDEX 01 00:45:30
  TRACK 35 AUDIO
    TITLE "2:cjc031_0810"
    INDEX 01 00:46:54
  TRACK 36 AUDIO
    TITLE "3:cjc031_0811"
    INDEX 01 00:47:70
  TRACK 37 AUDIO
    TITLE "2:cjc031_0812"
    INDEX 01 00:49:31
  TRACK 38 AUDIO
    TITLE "3:cjc031_0813"
    INDEX 01 00:50:54
  TRACK 39 AUDIO
    TITLE "2:cjc031_0814"
    INDEX 01 00:52:26
  TRACK 40 AUDIO
    TITLE "3:cjc031_0815"
    INDEX 01 00:53:60
  TRACK 41 AUDIO
    TITLE "2:cjc031_0816"
    INDEX 01 00:55:20
  TRACK 42 AUDIO
    TITLE "3:cjc031_0817"
    INDEX 01 00:56:29
  TRACK 43 AUDIO
    TITLE "2:cjc031_0818"
    INDEX 01 00:57:50
  TRACK 44 AUDIO
    TITLE "3:cjc031_0819"
    INDEX 01 00:58:67
  TRACK 45 AUDIO
    TITLE "2:cjc031_0820"
    INDEX 01 01:00:29
  TRACK 46 AUDIO
    TITLE "3:cjc031_0821"
    INDEX 01 01:01:58
  TRACK 47 AUDIO
    TITLE "2:cjc031_0822"
    INDEX 01 01:03:04
  TRACK 48 AUDIO
    TITLE "3:cjc031_0823"
    INDEX 01 01:04:39
  TRACK 49 AUDIO
    TITLE "2:cjc031_0824"
    INDEX 01 01:06:00
  TRACK 50 AUDIO
    TITLE "3:cjc031_0825"
    INDEX 01 01:07:23
  TRACK 51 AUDIO
    TITLE "2:cjc031_0826"
    INDEX 01 01:08:48
  TRACK 52 AUDIO
    TITLE "3:cjc031_0827"
    INDEX 01 01:10:04
  TRACK 53 AUDIO
    TITLE "2:cjc031_0828"
    INDEX 01 01:11:27
  TRACK 54 AUDIO
    TITLE "3:cjc031_0829"
    INDEX 01 01:12:48
  TRACK 55 AUDIO
    TITLE "2:cjc031_0830"
    INDEX 01 01:14:08
  TRACK 56 AUDIO
    TITLE "3:cjc031_0831"
    INDEX 01 01:15:29
  TRACK 57 AUDIO
    TITLE "2:cjc031_0832"
    INDEX 01 01:16:63
  TRACK 58 AUDIO
    TITLE "3:cjc031_0833"
    INDEX 01 01:17:73
  TRACK 59 AUDIO
    TITLE "2:cjc031_0834"
    INDEX 01 01:19:25
  TRACK 60 AUDIO
    TITLE "3:cjc031_0835"
    INDEX 01 01:20:71
  TRACK 61 AUDIO
    TITLE "2:cjc031_0836"
    INDEX 01 01:22:41
  TRACK 62 AUDIO
    TITLE "3:cjc031_0837"
    INDEX 01 01:24:00
  TRACK 63 AUDIO
    TITLE "2:cjc031_0838"
    INDEX 01 01:25:29
  TRACK 64 AUDIO
    TITLE "3:cjc031_0839"
    INDEX 01 01:26:74
  TRACK 65 AUDIO
    TITLE "2:cjc031_0840"
    INDEX 01 01:28:37
  TRACK 66 AUDIO
    TITLE "3:cjc031_0841"
    INDEX 01 01:29:74
  TRACK 67 AUDIO
    TITLE "2:cjc031_0842"
    INDEX 01 01:31:61
  TRACK 68 AUDIO
    TITLE "3:cjc031_0843"
    INDEX 01 01:33:03
  TRACK 69 AUDIO
    TITLE "2:cjc031_0844"
    INDEX 01 01:34:36
  TRACK 70 AUDIO
    TITLE "3:cjc031_0845"
    INDEX 01 01:35:55
  TRACK 71 AUDIO
    TITLE "2:cjc031_0846"
    INDEX 01 01:37:15
  TRACK 72 AUDIO
    TITLE "3:cjc031_0847"
    INDEX 01 01:38:24
  TRACK 73 AUDIO
    TITLE "2:cjc031_0848"
    INDEX 01 01:39:63
  TRACK 74 AUDIO
    TITLE "3:cjc031_0849"
    INDEX 01 01:41:09
  TRACK 75 AUDIO
    TITLE "2:cjc031_0850"
    INDEX 01 01:42:53
  TRACK 76 AUDIO
    TITLE "3:cjc031_0851"
    INDEX 01 01:44:17
  TRACK 77 AUDIO
    TITLE "2:cjc031_0852"
    INDEX 01 01:45:65
  TRACK 78 AUDIO
    TITLE "3:cjc031_0853"
    INDEX 01 01:47:19
  TRACK 79 AUDIO
    TITLE "2:cjc031_0854"
    INDEX 01 01:48:63
  TRACK 80 AUDIO
    TITLE "3:cjc031_0855"
    INDEX 01 01:49:73
  TRACK 81 AUDIO
    TITLE "0:"
    INDEX 01 01:51:36
